# xmcd
#
# Track frame offsets: 
#        150
#        16591
#        36475
#        54801
#        74282
#        98461
#        123428
#        143617
#        160605
#
# Disc length: 2386 seconds
#
# Revision: 2
# Processed by: cddbd v1.5.2PL0 Copyright (c) Steve Scherf et al.
# Submitted via: ExactAudioCopy v1.3
#
DISCID=63095009
DTITLE=押尾コータロー - Reboot and Collabo [Disc 1]
DYEAR=2013
DGENRE=Acoustic
TTITLE0=Ready, Go!
TTITLE1=One Love, ~T's theme?
TTITLE2=Weather Report
TTITLE3=nanairo
TTITLE4=Midnight Rain
TTITLE5=MISSION
TTITLE6=キミノコト
TTITLE7=STEALTH
TTITLE8=Kiwi and Avocado
EXTD=YEAR: 2013
EXTT0=
EXTT1=
EXTT2=
EXTT3=
EXTT4=
EXTT5=
EXTT6=
EXTT7=
EXTT8=
PLAYORDER=
